<svg width="50" height="50" viewBox="0 0 50 50" fill="none" xmlns="http://www.w3.org/2000/svg">
<g clip-path="url(#clip0)">
<path d="M32.9981 35.0412L35.2846 31.3311L39.4107 29.9238L39.8679 25.5901L42.9723 22.534L41.4963 18.4318L42.9723 14.3296L39.868 11.2734L39.4108 6.93984L35.2847 5.53262L32.9982 1.82236L28.6735 2.34453L24.9998 0L21.3261 2.34473L17.0015 1.82256L14.715 5.53272L10.5889 6.93994L10.1317 11.2735L7.02734 14.3297L8.50332 18.4319L7.02734 22.5342L10.1316 25.5902L10.5888 29.9239L14.7149 31.3312L17.0014 35.0413L21.3261 34.5192L24.9998 36.8639L28.6735 34.5192L32.9981 35.0412ZM12.3603 18.4319C12.3603 11.4625 18.0304 5.79238 24.9998 5.79238C31.9692 5.79238 37.6394 11.4625 37.6394 18.4319C37.6394 25.4014 31.9692 31.0715 24.9998 31.0715C18.0304 31.0715 12.3603 25.4014 12.3603 18.4319Z" fill="black"/>
<path d="M24.999 8.72388C19.646 8.72388 15.291 13.0789 15.291 18.4319C15.291 23.7849 19.646 28.1399 24.999 28.1399C30.3521 28.1399 34.707 23.7849 34.707 18.4319C34.707 13.0789 30.3521 8.72388 24.999 8.72388Z" fill="#FF0B00"/>
<path d="M20.6336 37.5555L15.4891 38.1766L12.771 33.7657L11.847 33.4507L7.86133 45.9083L15.0366 45.5137L20.6504 50L23.9539 39.6746L20.6336 37.5555Z" fill="#FF0B00"/>
<path d="M37.2278 33.7658L34.5097 38.1766L29.3652 37.5555L26.0449 39.6746L29.3484 50L34.9622 45.5137L42.1375 45.9083L38.1519 33.4507L37.2278 33.7658Z" fill="#FF0B00"/>
</g>
<defs>
<clipPath id="clip0">
<rect width="50" height="50" fill="white"/>
</clipPath>
</defs>
</svg>
