<svg width="41" height="40" viewBox="0 0 41 40" fill="none" xmlns="http://www.w3.org/2000/svg">
<path d="M26.2614 10.3444C29.1445 10.3444 31.4818 8.02872 31.4818 5.1722C31.4818 2.31567 29.1445 0 26.2614 0C23.3783 0 21.041 2.31567 21.041 5.1722C21.041 8.02872 23.3783 10.3444 26.2614 10.3444Z" fill="#FF0B00"/>
<path d="M14.3923 5.87354C11.5091 5.87354 9.17188 8.18916 9.17188 11.0457C9.17188 11.2652 9.18725 11.481 9.21406 11.6932H19.5705C19.5972 11.481 19.6126 11.2652 19.6126 11.0457C19.6126 8.18924 17.2754 5.87354 14.3923 5.87354Z" fill="#FF0B00"/>
<path d="M24.675 20.3189H35.9121V16.0409C35.9121 14.9893 35.0516 14.137 33.9904 14.137H3.6697C2.60833 14.137 1.74805 14.9895 1.74805 16.0409V38.0959C1.74805 39.1475 2.60833 39.9998 3.6697 39.9998H33.9904C35.0518 39.9998 35.9121 39.1474 35.9121 38.0959V33.8179H24.675C22.3601 33.8179 20.4767 31.9519 20.4767 29.6583V24.4785C20.4767 22.1849 22.36 20.3189 24.675 20.3189Z" fill="black"/>
<path d="M37.0489 22.9189H24.6759C23.8064 22.9189 23.1016 23.6172 23.1016 24.4787V29.6586C23.1016 30.5201 23.8064 31.2183 24.6759 31.2183H37.0489C37.9184 31.2183 38.6232 30.5201 38.6232 29.6586V24.4787C38.6232 23.6172 37.9182 22.9189 37.0489 22.9189ZM27.2803 28.8995C26.2597 28.8995 25.4324 28.0798 25.4324 27.0686C25.4324 26.0575 26.2597 25.2378 27.2803 25.2378C28.3009 25.2378 29.1282 26.0575 29.1282 27.0686C29.1282 28.0798 28.3009 28.8995 27.2803 28.8995Z" fill="#FF0B00"/>
</svg>
