<svg width="40" height="40" viewBox="0 0 40 40" fill="none" xmlns="http://www.w3.org/2000/svg">
<g clip-path="url(#clip0)">
<path d="M39.7661 14.5312L37.6683 11.7341L36.5019 19.8991C36.3951 20.6471 36.0419 21.3533 35.5074 21.8877L21.1444 36.2508C19.8916 37.5038 18.2239 38.1939 16.4487 38.1939C15.9182 38.1939 15.3977 38.1309 14.8945 38.0111C15.6586 39.2056 16.9959 39.9999 18.5161 39.9999H35.7036C38.0729 39.9999 40.0005 38.0723 40.0005 35.703V15.2343C40.0005 14.9808 39.9182 14.7341 39.7661 14.5312Z" fill="black"/>
<path d="M24.1816 19.469C24.8289 19.469 25.3535 18.9443 25.3535 18.2971C25.3535 17.6499 24.8289 17.1252 24.1816 17.1252C23.5344 17.1252 23.0098 17.6499 23.0098 18.2971C23.0098 18.9443 23.5344 19.469 24.1816 19.469Z" fill="black"/>
<path d="M10.9238 19.469C11.571 19.469 12.0957 18.9443 12.0957 18.2971C12.0957 17.6499 11.571 17.1252 10.9238 17.1252C10.2766 17.1252 9.75195 17.6499 9.75195 18.2971C9.75195 18.9443 10.2766 19.469 10.9238 19.469Z" fill="black"/>
<path d="M19.4866 34.5937L33.8497 20.2306C34.029 20.0513 34.1454 19.8187 34.1812 19.5677L35.8386 7.96665C35.8907 7.60149 35.7679 7.23305 35.5071 6.97227L33.0211 4.48633L29.7066 7.80094L30.5353 8.62961C30.9929 9.08719 30.9929 9.82922 30.5353 10.2869C30.3065 10.5157 30.0065 10.6302 29.7067 10.6302C29.4069 10.6302 29.1069 10.5157 28.8781 10.2869L25.5635 6.97227C25.1058 6.51469 25.1058 5.77266 25.5635 5.315C26.0211 4.85743 26.7631 4.85743 27.2208 5.315L28.0494 6.14368L31.364 2.82907L28.878 0.343129C28.6172 0.0822696 28.2488 -0.0400742 27.8837 0.0116446L16.2826 1.66899C16.0315 1.70485 15.799 1.82118 15.6197 2.00047L1.25654 16.3636C-0.418848 18.0389 -0.418848 20.765 1.25654 22.4403L13.4099 34.5937C14.2476 35.4314 15.3479 35.8502 16.4483 35.8502C17.5486 35.8502 18.649 35.4314 19.4866 34.5937ZM24.1822 14.7815C26.1208 14.7815 27.6979 16.3586 27.6979 18.2971C27.6979 20.2356 26.1208 21.8127 24.1822 21.8127C22.2437 21.8127 20.6666 20.2356 20.6666 18.2971C20.6666 16.3586 22.2437 14.7815 24.1822 14.7815ZM10.924 21.8127C8.98545 21.8127 7.40834 20.2356 7.40834 18.2971C7.40834 16.3586 8.98545 14.7815 10.924 14.7815C12.8625 14.7815 14.4396 16.3586 14.4396 18.2971C14.4396 20.2356 12.8626 21.8127 10.924 21.8127ZM14.7912 27.7557C14.6683 27.7557 14.5433 27.7363 14.4204 27.6953C13.8065 27.4906 13.4747 26.827 13.6793 26.213L19.2035 9.64008C19.4082 9.0261 20.0719 8.6943 20.6858 8.89891C21.2998 9.1036 21.6316 9.76719 21.427 10.3813L15.9028 26.9541C15.739 27.4451 15.2818 27.7557 14.7912 27.7557Z" fill="#FF0B00"/>
<path d="M35.5064 2.00045C35.9641 1.54287 35.9641 0.80084 35.5064 0.343184C35.0488 -0.114395 34.3068 -0.114395 33.8491 0.343184L31.3633 2.82912L33.0205 4.48639L35.5064 2.00045Z" fill="black"/>
</g>
<defs>
<clipPath id="clip0">
<rect width="40" height="40" fill="white"/>
</clipPath>
</defs>
</svg>
