<svg width="49" height="49" viewBox="0 0 49 49" fill="none" xmlns="http://www.w3.org/2000/svg">
<path d="M28.9471 27.5027L28.8274 26.8047C28.7476 26.339 28.9019 25.8638 29.2403 25.5341L32.8996 21.9671L27.8425 21.2322C27.375 21.1643 26.9707 20.8706 26.7616 20.447L24.5001 15.8645L22.2385 20.447C22.0294 20.8706 21.6251 21.1643 21.1576 21.2322L16.1006 21.9671L19.7599 25.5341C20.0982 25.8638 20.2526 26.339 20.1728 26.8047L19.3089 31.8413L23.8321 29.4632C24.0412 29.3534 24.2707 29.2983 24.5001 29.2983C24.7295 29.2983 24.959 29.3533 25.1681 29.4632L26.4545 30.1396C27.0062 29.4737 27.591 28.8295 28.2102 28.2103C28.4518 27.9687 28.6982 27.734 28.9471 27.5027Z" fill="black"/>
<path d="M24.5 8.61328C15.74 8.61328 8.61328 15.74 8.61328 24.5C8.61328 32.1408 14.0356 38.5385 21.2343 40.0485C21.9972 37.3612 23.1696 34.8101 24.7214 32.472L24.5 32.3556L18.0703 35.7359C17.8603 35.8463 17.6309 35.9008 17.4024 35.9008C17.1047 35.9008 16.8085 35.8084 16.5585 35.6266C16.1164 35.3056 15.8949 34.7612 15.9874 34.2226L17.2154 27.0629L12.0136 21.9926C11.6224 21.6112 11.4815 21.0407 11.6504 20.521C11.8192 20.0013 12.2685 19.6225 12.8092 19.544L19.9978 18.4994L23.2127 11.9854C23.4545 11.4954 23.9536 11.1852 24.5 11.1852C25.0464 11.1852 25.5455 11.4954 25.7873 11.9854L29.0022 18.4994L36.1908 19.544C36.7315 19.6225 37.1808 20.0013 37.3496 20.521C37.5185 21.0407 37.3776 21.6112 36.9864 21.9926L36.4106 22.5538C37.5889 22.0278 38.8042 21.5876 40.0485 21.2343C38.5384 14.0356 32.1408 8.61328 24.5 8.61328Z" fill="#FF0B00"/>
<path d="M20.5957 42.848C12.1203 41.0465 5.74219 33.5046 5.74219 24.5C5.74219 14.1569 14.1569 5.74219 24.5 5.74219C33.5045 5.74219 41.0464 12.1202 42.8479 20.5957C44.3905 20.3294 45.967 20.1934 47.5645 20.1934C47.9365 20.1934 48.2999 20.241 48.6483 20.331C47.8031 15.3724 45.4533 10.8051 41.8242 7.17582C37.1966 2.54848 31.0442 0 24.5 0C17.9558 0 11.8034 2.54848 7.17582 7.17592C2.54848 11.8034 0 17.9558 0 24.5C0 31.0442 2.54848 37.1966 7.17582 41.8242C10.805 45.4533 15.3724 47.8031 20.331 48.6484C20.241 48.3 20.1933 47.9366 20.1933 47.5646C20.1934 45.967 20.3294 44.3905 20.5957 42.848Z" fill="black"/>
<path d="M24.4997 49C24.3148 49 24.1283 48.9643 23.9507 48.8907C23.4142 48.6685 23.0645 48.1451 23.0645 47.5645C23.0645 41.0203 25.6129 34.8678 30.2403 30.2403C34.8678 25.6129 41.0203 23.0645 47.5645 23.0645C48.1451 23.0645 48.6686 23.4142 48.8907 23.9507C49.1128 24.4872 48.99 25.1046 48.5795 25.5151L25.515 48.5796C25.2405 48.8542 24.8732 49 24.4997 49Z" fill="black"/>
</svg>
