<svg width="14" height="14" viewBox="0 0 14 14" xmlns="http://www.w3.org/2000/svg">
    <path d="M10.2103 0H3.78967C1.70001 0 0 1.70001 0 3.78967V10.2104C0 12.3 1.70001 14 3.78967 14H10.2104C12.3 14 14 12.3 14 10.2104V3.78967C14 1.70001 12.3 0 10.2103 0V0ZM6.99999 10.828C4.88918 10.828 3.17198 9.11079 3.17198 6.99999C3.17198 4.88918 4.88918 3.17198 6.99999 3.17198C9.11079 3.17198 10.828 4.88918 10.828 6.99999C10.828 9.11079 9.11079 10.828 6.99999 10.828ZM10.9195 4.07475C10.2958 4.07475 9.7884 3.56739 9.7884 2.94361C9.7884 2.31984 10.2958 1.81237 10.9195 1.81237C11.5433 1.81237 12.0508 2.31984 12.0508 2.94361C12.0508 3.56739 11.5433 4.07475 10.9195 4.07475Z"/>
    <path d="M7.00044 3.99268C5.3423 3.99268 3.99316 5.3417 3.99316 6.99995C3.99316 8.65809 5.3423 10.0072 7.00044 10.0072C8.65868 10.0072 10.0077 8.65809 10.0077 6.99995C10.0077 5.3417 8.65868 3.99268 7.00044 3.99268Z"/>
    <path d="M10.9198 2.6333C10.7487 2.6333 10.6094 2.77258 10.6094 2.94369C10.6094 3.11481 10.7487 3.25409 10.9198 3.25409C11.091 3.25409 11.2303 3.11491 11.2303 2.94369C11.2303 2.77248 11.091 2.6333 10.9198 2.6333Z"/>
</svg>