<svg width="41" height="58" viewBox="0 0 41 58" fill="none" xmlns="http://www.w3.org/2000/svg">
<path d="M39.8961 13.78V54.427H0.754167V13.78H39.8961ZM40.6503 8.13873H25.1557L20.3252 3.66048L15.4946 8.13873H0V5.42515H14.4732L20.3252 0L26.1771 5.42515H40.6503V8.13873ZM40.6503 12.709H25.1557L20.3252 8.23076L15.4946 12.709H0V9.99543H14.4732L20.3252 4.57028L26.1771 9.99543H40.6503V12.709ZM0.0447849 55.2864H40.6055V58H0.0447849V55.2864ZM37.2187 28.8671H21.664V51.7137H37.2187V28.8671ZM18.9866 28.8671H3.43186V51.7137H18.9866V28.8671ZM3.43186 26.1535H18.9866V16.4939H3.43186V26.1535ZM21.664 26.1535H37.2187V16.4939H21.664V26.1535Z" fill="white"/>
</svg>
