<svg width="55" height="79" viewBox="0 0 55 79" fill="none" xmlns="http://www.w3.org/2000/svg">
<path d="M53.9796 18.6444V73.64H1.02039V18.6444H53.9796ZM55 11.0117H34.0358L27.5 4.95265L20.9642 11.0117H0V7.34025H19.5823L27.5 0L35.4177 7.34025H55V11.0117ZM55 17.1953H34.0358L27.5 11.1362L20.9642 17.1953H0V13.5238H19.5823L27.5 6.1836L35.4177 13.5238H55V17.1953ZM0.0605941 74.8027H54.9394V78.4742H0.0605941V74.8027ZM50.357 39.0573H29.3115V69.9688H50.357V39.0573ZM25.6889 39.0573H4.64331V69.9688H25.6889V39.0573ZM4.64331 35.3858H25.6889V22.3163H4.64331V35.3858ZM29.3115 35.3858H50.357V22.3163H29.3115V35.3858Z" fill="url(#paint0_linear)"/>
<defs>
<linearGradient id="paint0_linear" x1="27.5" y1="73.64" x2="27.5007" y2="6.1836" gradientUnits="userSpaceOnUse">
<stop stop-color="#F4E10B"/>
<stop offset="1" stop-color="#FF0B00"/>
</linearGradient>
</defs>
</svg>
