<svg width="18" height="12" viewBox="0 0 18 12" xmlns="http://www.w3.org/2000/svg">
    <path d="M14.9363 6.771C14.6453 6.4035 14.7285 6.24 14.9363 5.9115C14.94 5.90775 17.3423 2.58825 17.5898 1.4625L17.5913 1.46175C17.7143 1.0515 17.5913 0.75 16.9965 0.75H15.0285C14.5275 0.75 14.2965 1.00875 14.1728 1.29825C14.1728 1.29825 13.1708 3.69675 11.7533 5.2515C11.2958 5.70075 11.0843 5.84475 10.8345 5.84475C10.7115 5.84475 10.5203 5.70075 10.5203 5.2905V1.46175C10.5203 0.96975 10.38 0.75 9.96525 0.75H6.87075C6.5565 0.75 6.36975 0.9795 6.36975 1.19325C6.36975 1.65975 7.0785 1.767 7.152 3.0795V5.92725C7.152 6.55125 7.03875 6.666 6.7875 6.666C6.1185 6.666 4.49475 4.25775 3.5325 1.5015C3.33825 0.96675 3.1485 0.75075 2.64375 0.75075H0.675C0.11325 0.75075 0 1.0095 0 1.299C0 1.8105 0.669 4.35375 3.111 7.71375C4.7385 10.0073 7.0305 11.25 9.1155 11.25C10.3688 11.25 10.5218 10.974 10.5218 10.4993C10.5218 8.30775 10.4085 8.10075 11.0363 8.10075C11.3273 8.10075 11.8283 8.24475 12.9983 9.351C14.3355 10.6628 14.5553 11.25 15.3038 11.25H17.2718C17.8328 11.25 18.117 10.974 17.9535 10.4295C17.5793 9.28425 15.0503 6.9285 14.9363 6.771Z"/>
</svg>