<svg width="59" height="47" viewBox="0 0 59 47" fill="none" xmlns="http://www.w3.org/2000/svg">
<path d="M6.45041 16.9122C6.45041 16.9122 8.27275 14.5634 7.09419 11.3014C5.91152 8.04145 3.15743 6.80328 3.15743 6.80328C3.15743 6.80328 1.0965 9.60252 2.24832 12.7802C3.39808 15.9599 6.45041 16.9122 6.45041 16.9122Z" fill="black"/>
<path d="M11.5084 18.5803C11.5084 18.5803 14.6944 18.3252 16.5188 15.4766C18.3432 12.6301 16.9487 9.44623 16.9487 9.44623C16.9487 9.44623 13.991 10.0468 12.1172 12.9694C10.2455 15.89 11.5084 18.5803 11.5084 18.5803Z" fill="#FF0B00"/>
<path d="M11.831 22.3442C10.3562 25.4848 11.9585 27.9899 11.9585 27.9899C11.9585 27.9899 15.0869 27.3194 16.5226 24.2611C17.9562 21.1986 16.1585 18.2245 16.1585 18.2245C16.1585 18.2245 13.3057 19.2035 11.831 22.3442Z" fill="#FF0B00"/>
<path d="M19.0315 24.8739C19.0315 24.8739 16.2816 26.1203 15.1092 29.3823C13.9368 32.6505 15.7653 34.9911 15.7653 34.9911C15.7653 34.9911 18.8135 34.0306 19.9571 30.8488C21.0986 27.667 19.0315 24.8739 19.0315 24.8739Z" fill="black"/>
<path d="M21.323 42.0519C21.323 42.0519 23.9681 40.2522 24.147 36.8771C24.3239 33.4999 21.5369 31.4226 21.5369 31.4226C21.5369 31.4226 19.262 33.4074 19.079 36.8709C18.898 40.3325 21.323 42.0519 21.323 42.0519Z" fill="black"/>
<path d="M10.5123 10.6268C10.5123 10.6268 13.3322 9.6848 14.159 6.3179C14.9879 2.95099 13.3857 0.392395 13.3857 0.392395C13.3857 0.392395 10.1194 1.57708 9.3111 4.86172C8.50482 8.14429 10.5123 10.6268 10.5123 10.6268Z" fill="black"/>
<path d="M6.44831 24.0718C6.44831 24.0718 7.49523 21.289 5.40755 18.5227C3.31576 15.7543 0.321025 15.382 0.321025 15.382C0.321025 15.382 -0.822569 18.6646 1.21369 21.3631C3.24994 24.0636 6.44831 24.0718 6.44831 24.0718Z" fill="black"/>
<path d="M8.78525 31.4144C8.78525 31.4144 9.18633 28.4692 6.53714 26.2355C3.88384 23.9998 0.880877 24.3042 0.880877 24.3042C0.880877 24.3042 0.494194 27.7596 3.07757 29.9377C5.66505 32.1137 8.78525 31.4144 8.78525 31.4144Z" fill="black"/>
<path d="M12.3437 37.4859C12.3437 37.4859 11.8398 34.5571 8.63523 33.2325C5.42864 31.9039 2.66016 33.103 2.66016 33.103C2.66016 33.103 3.33891 36.5131 6.46117 37.8088C9.58343 39.0984 12.3437 37.4859 12.3437 37.4859Z" fill="#FF0B00"/>
<path d="M13.8976 40.0075C10.5573 39.0738 7.94922 40.5937 7.94922 40.5937C7.94922 40.5937 9.02905 43.8968 12.2829 44.808C15.541 45.7191 18.0873 43.7878 18.0873 43.7878C18.0873 43.7878 17.2378 40.9392 13.8976 40.0075Z" fill="black"/>
<path d="M10.8606 12.6342L9.3756 11.9041C9.29744 12.0665 1.6584 28.2923 23.1234 46.6405L24.1971 45.3839C3.76047 27.9118 10.5603 13.2492 10.8606 12.6342Z" fill="black"/>
<path d="M52.5502 16.8814C52.5502 16.8814 50.7258 14.5326 51.9064 11.2726C53.085 8.01063 55.8411 6.77246 55.8411 6.77246C55.8411 6.77246 57.9 9.56964 56.7482 12.7494C55.6026 15.9291 52.5502 16.8814 52.5502 16.8814Z" fill="black"/>
<path d="M47.4921 18.5494C47.4921 18.5494 44.306 18.2923 42.4796 15.4457C40.6552 12.5992 42.0497 9.41534 42.0497 9.41534C42.0497 9.41534 45.0074 10.0159 46.8832 12.9365C48.755 15.8591 47.4921 18.5494 47.4921 18.5494Z" fill="black"/>
<path d="M47.1694 22.3113C48.6442 25.4519 47.0419 27.9571 47.0419 27.9571C47.0419 27.9571 43.9135 27.2865 42.4757 24.2282C41.0442 21.1657 42.8398 18.1916 42.8398 18.1916C42.8398 18.1916 45.6947 19.1727 47.1694 22.3113Z" fill="black"/>
<path d="M39.9684 24.8431C39.9684 24.8431 42.7163 26.0874 43.8908 29.3556C45.0632 32.6217 43.2326 34.9623 43.2326 34.9623C43.2326 34.9623 40.1864 33.9997 39.0428 30.8179C37.8992 27.6361 39.9684 24.8431 39.9684 24.8431Z" fill="black"/>
<path d="M37.6728 42.019C37.6728 42.019 35.0298 40.2214 34.8508 36.8442C34.674 33.467 37.463 31.3876 37.463 31.3876C37.463 31.3876 39.7338 33.3724 39.9189 36.838C40.1019 40.3037 37.6728 42.019 37.6728 42.019Z" fill="black"/>
<path d="M48.4839 10.596C48.4839 10.596 45.6681 9.65396 44.8413 6.28706C44.0124 2.92015 45.6167 0.359497 45.6167 0.359497C45.6167 0.359497 48.883 1.54419 49.6892 4.83088C50.4955 8.1114 48.4839 10.596 48.4839 10.596Z" fill="black"/>
<path d="M52.5518 24.0409C52.5518 24.0409 51.5049 21.2581 53.5905 18.4918C55.6823 15.7234 58.6791 15.3511 58.6791 15.3511C58.6791 15.3511 59.8248 18.6337 57.7864 21.3322C55.7481 24.0327 52.5518 24.0409 52.5518 24.0409Z" fill="black"/>
<path d="M50.2153 31.3835C50.2153 31.3835 49.8121 28.4383 52.4634 26.2005C55.1167 23.9669 58.1197 24.2713 58.1197 24.2713C58.1197 24.2713 58.5063 27.7287 55.9209 29.9047C53.3355 32.0808 50.2153 31.3835 50.2153 31.3835Z" fill="black"/>
<path d="M46.6553 37.4551C46.6553 37.4551 47.1612 34.5242 50.3658 33.1976C53.5744 31.869 56.3409 33.068 56.3409 33.068C56.3409 33.068 55.6621 36.4781 52.5398 37.7718C49.4155 39.0676 46.6553 37.4551 46.6553 37.4551Z" fill="black"/>
<path d="M45.0997 39.9766C48.44 39.0449 51.0501 40.5628 51.0501 40.5628C51.0501 40.5628 49.9723 43.8639 46.7164 44.7812C43.4604 45.6882 40.9141 43.7569 40.9141 43.7569C40.9141 43.7569 41.7615 40.9104 45.0997 39.9766Z" fill="black"/>
<path d="M48.138 12.6033L49.6271 11.8732C49.7053 12.0357 57.3443 28.2614 35.8773 46.6076L34.8057 45.3509C55.2382 27.8829 48.4383 13.2162 48.138 12.6033Z" fill="black"/>
</svg>
