<svg width="56" height="56" viewBox="0 0 56 56" fill="none" xmlns="http://www.w3.org/2000/svg">
<path d="M25.2185 31.2923C26.3498 30.5855 27.3744 29.7235 28.2622 28.7352L31.463 30.5836L34.3775 25.5355L31.1831 23.6911C31.5892 22.4511 31.8282 21.1359 31.8729 19.7725L35.507 19.1317L34.4945 13.3913L30.861 14.0321C30.3589 12.7876 29.6852 11.6304 28.8683 10.5904L31.2434 7.76017L26.7781 4.01363L24.405 6.84145C23.2459 6.22032 21.9907 5.75602 20.6678 5.47741V1.78943H14.8389V5.47741C13.5159 5.75602 12.2607 6.22032 11.1015 6.84145L8.7285 4.01363L4.26325 7.7603L6.63812 10.5905C5.82127 11.6305 5.14761 12.7879 4.64547 14.0322L1.01203 13.3915L0 19.1319L3.63356 19.7726C3.67835 21.1361 3.91739 22.4511 4.32354 23.6915L1.12888 25.5357L4.04346 30.5838L7.2444 28.7359C8.13197 29.7237 9.15657 30.5859 10.288 31.2927L9.02449 34.7637L14.502 36.757L15.7638 33.2907C16.4141 33.3827 17.0781 33.4315 17.7534 33.4315C18.4287 33.4315 19.0928 33.383 19.7431 33.2907L21.0047 36.7573L26.482 34.7634L25.2185 31.2923ZM17.7531 26.7467C13.6486 26.7467 10.3092 23.4075 10.3092 19.3028C10.3092 15.1984 13.6486 11.859 17.7531 11.859C21.8577 11.859 25.197 15.1984 25.197 19.3028C25.197 23.4075 21.8578 26.7467 17.7531 26.7467Z" fill="black"/>
<path d="M50.2734 35.6694L47.7607 36.4823C47.2816 35.6495 46.6893 34.8955 46.0074 34.2391L47.4116 31.9979L43.8759 29.7827L42.4725 32.022C41.5896 31.696 40.654 31.4908 39.6882 31.4242L39.3239 28.8094L35.1913 29.3855L35.5556 32.0003C34.6453 32.3282 33.8009 32.782 33.0406 33.3367L31.0791 31.5661L28.2834 34.6634L30.2465 36.436C29.7703 37.2539 29.4073 38.1408 29.1743 39.0732L26.5347 38.9777L26.3838 43.1473L29.0232 43.243C29.1898 44.2053 29.4893 45.1134 29.9 45.953L27.8173 47.5764L30.3822 50.8672L32.469 49.241C33.196 49.8536 34.0079 50.3635 34.8795 50.7532L34.3263 53.3393L38.4068 54.2109L38.9593 51.6288C39.4294 51.6302 39.9048 51.5982 40.3834 51.5316C40.8623 51.4651 41.3286 51.3645 41.7801 51.2355L43.0175 53.5686L46.7039 51.6136L45.4651 49.2779C46.1977 48.6648 46.8382 47.952 47.3705 47.164L49.8221 48.1581L51.3899 44.2913L48.9429 43.299C49.1079 42.3799 49.1473 41.4237 49.0451 40.4523L51.5583 39.639L50.2734 35.6694ZM39.7237 46.7923C36.8131 47.1975 34.1155 45.1601 33.7103 42.2499C33.3043 39.3396 35.3422 36.6418 38.2527 36.2367C41.1628 35.8308 43.8598 37.8686 44.266 40.7792C44.671 43.6892 42.6337 46.3863 39.7237 46.7923Z" fill="black"/>
<path d="M55.9025 21.2095L56.0003 17.9169L53.9166 17.855C53.786 17.1293 53.5526 16.4107 53.2101 15.7198L54.8465 14.427L52.8049 11.8428L51.1688 13.135C50.5852 12.6502 49.9398 12.2548 49.2546 11.9564L49.6776 9.91218L46.4526 9.24426L46.0288 11.2872C45.2856 11.2883 44.5373 11.3937 43.804 11.6096L42.8159 9.77448L39.9155 11.3365L40.9036 13.1719C40.3203 13.6647 39.8198 14.2326 39.4095 14.8519L37.4715 14.0805L36.2535 17.1411L38.1931 17.9137C38.0654 18.65 38.0405 19.4054 38.1243 20.1595L36.1445 20.8143L37.1782 23.942L39.158 23.2875C39.5457 23.9541 40.0171 24.5436 40.5519 25.0523L39.4568 26.8261L42.2594 28.5569L43.3568 26.7799C44.0634 27.0333 44.8044 27.1877 45.5565 27.2363L45.8575 29.3022L49.1173 28.8261L48.817 26.7627C49.1649 26.6348 49.5082 26.4808 49.8443 26.2998C50.1807 26.119 50.4982 25.9165 50.7966 25.6968L52.3538 27.0833L54.5446 24.6237L52.9863 23.2356C53.36 22.5805 53.638 21.8768 53.8156 21.1475L55.9025 21.2095ZM48.0535 22.9738C46.0106 24.0737 43.454 23.307 42.3547 21.2649C41.2544 19.2225 42.0213 16.6654 44.0642 15.5661C46.1061 14.4659 48.6625 15.2332 49.7628 17.2756C50.862 19.3181 50.0956 21.8738 48.0535 22.9738Z" fill="#FF0B00"/>
</svg>
