<svg width="54" height="54" viewBox="0 0 54 54" fill="none" xmlns="http://www.w3.org/2000/svg">
<path d="M36.66 9.1939C33.8139 7.97826 30.5684 8.0214 27.7559 9.31223C26.5662 9.85814 25.4935 10.6044 24.5677 11.5302L16.5322 19.5651C15.9596 20.1376 15.6055 20.9287 15.6055 21.8024V26.0211C15.6055 27.7686 17.022 29.1852 18.7695 29.1852C20.517 29.1852 21.9336 27.7686 21.9336 26.0211V23.1128L24.0277 21.0187C24.505 20.5414 25.2294 20.4263 25.8392 20.7156C28.7769 22.1095 32.4029 21.5928 34.8304 19.1652C35.4483 18.5474 36.4499 18.5474 37.0677 19.1652C37.6856 19.7831 37.6856 20.7847 37.0677 21.4025C35.8773 22.593 34.4639 23.4605 32.9495 23.9961L42.6615 33.7081L44.3488 32.0209H46.09V9.5006H37.3781L36.66 9.1939Z" fill="#FF0B00"/>
<path d="M52.418 7.90836H50.8359C49.9622 7.90836 49.2539 8.61668 49.2539 9.49039V31.6388C49.2539 32.5125 49.9622 33.2209 50.8359 33.2209H52.418C53.2917 33.2209 54 32.5125 54 31.6388V9.49039C54 8.61668 53.2917 7.90836 52.418 7.90836Z" fill="#FF0B00"/>
<path d="M3.16406 7.90836H1.58203C0.708328 7.90836 0 8.61668 0 9.49039V31.6388C0 32.5125 0.708328 33.2209 1.58203 33.2209H3.16406C4.03777 33.2209 4.74609 32.5125 4.74609 31.6388V9.49039C4.74609 8.61668 4.03777 7.90836 3.16406 7.90836Z" fill="black"/>
<path d="M25.5182 24.0028L25.0974 24.4235V26.0212C25.0974 27.7115 24.4392 29.3006 23.2439 30.4959C22.0488 31.691 20.4596 32.3493 18.7692 32.3493C15.28 32.3493 12.4412 29.5105 12.4412 26.0212L12.4411 21.8024C12.4411 20.1119 13.0994 18.5229 14.2946 17.3278L22.3301 9.29284C22.6322 8.99068 22.9467 8.70348 23.2726 8.43138C21.281 8.1368 19.2232 8.38961 17.3402 9.19391L16.6223 9.50051H7.91016V32.0208H9.65155L21.4067 43.776C23.5528 45.9221 26.625 46.5756 29.3367 45.7398L24.0169 40.42C23.3991 39.8022 23.3991 38.8006 24.0169 38.1827C24.6348 37.5649 25.6364 37.5649 26.2542 38.1827L32.2067 44.1352C32.3382 44.0199 32.4678 43.9015 32.5933 43.7761L35.2036 41.1658L29.2374 35.1997C28.6196 34.5818 28.6196 33.5802 29.2374 32.9624C29.8552 32.3445 30.8569 32.3445 31.4747 32.9624L37.441 38.9285L40.4242 35.9454L29.1191 24.6407C27.9071 24.6292 26.6899 24.4195 25.5182 24.0028Z" fill="black"/>
</svg>
