<svg width="51" height="51" viewBox="0 0 51 51" fill="none" xmlns="http://www.w3.org/2000/svg">
<g clip-path="url(#clip0)">
<path d="M34.7117 33.933C37.1685 30.5178 38.6789 26.5935 39.1504 22.4513L25.5 18.5697L11.8496 22.4513C12.321 26.5934 13.8314 30.5178 16.2883 33.933C18.6804 37.258 21.855 39.933 25.5 41.7024C29.145 39.933 32.3197 37.258 34.7117 33.933Z" fill="#FF0B00"/>
<path d="M25.4996 15.4026L39.3098 19.3297V12.9954L25.4996 9.06831L11.6895 12.9954V19.3297L25.4996 15.4026Z" fill="#FF0B00"/>
<path d="M27.0234 1.52588e-05V6.33431L42.3568 10.6946V19.6326C42.3568 25.4487 40.5685 31.0089 37.185 35.7122C34.5399 39.3886 31.0414 42.358 27.0234 44.3479V51.0001C33.0907 48.6358 38.2978 44.5983 42.1307 39.2702C46.2644 33.5242 48.4495 26.7335 48.4495 19.6326V6.09273L27.0234 1.52588e-05Z" fill="black"/>
<path d="M23.9768 44.3478C19.9589 42.3579 16.4602 39.3885 13.8154 35.7121C10.4319 31.0089 8.6435 25.4487 8.6435 19.6325V10.6945L23.9768 6.33421V1.52588e-05L2.55078 6.09273V19.6325C2.55078 26.7334 4.73583 33.5241 8.86954 39.2701C12.7026 44.5982 17.9097 48.6357 23.9768 51V44.3478Z" fill="black"/>
</g>
<defs>
<clipPath id="clip0">
<rect width="51" height="51" fill="white"/>
</clipPath>
</defs>
</svg>
